<?xml version="1.0" encoding="utf-8" standalone="no"?>
<!DOCTYPE svg PUBLIC "-//W3C//DTD SVG 1.1//EN"
  "http://www.w3.org/Graphics/SVG/1.1/DTD/svg11.dtd">
<svg xmlns:xlink="http://www.w3.org/1999/xlink" width="659.52pt" height="401.04pt" viewBox="0 0 659.52 401.04" xmlns="http://www.w3.org/2000/svg" version="1.1">
 <metadata>
  <rdf:RDF xmlns:dc="http://purl.org/dc/elements/1.1/" xmlns:cc="http://creativecommons.org/ns#" xmlns:rdf="http://www.w3.org/1999/02/22-rdf-syntax-ns#">
   <cc:Work>
    <dc:type rdf:resource="http://purl.org/dc/dcmitype/StillImage"/>
    <dc:date>2022-05-26T15:09:15.229158</dc:date>
    <dc:format>image/svg+xml</dc:format>
    <dc:creator>
     <cc:Agent>
      <dc:title>Matplotlib v3.5.2, https://matplotlib.org/</dc:title>
     </cc:Agent>
    </dc:creator>
   </cc:Work>
  </rdf:RDF>
 </metadata>
 <defs>
  <style type="text/css">*{stroke-linejoin: round; stroke-linecap: butt}</style>
 </defs>
 <g id="figure_1">
  <g id="patch_1">
   <path d="M 0 401.04 
L 659.52 401.04 
L 659.52 0 
L 0 0 
z
" style="fill: #ffffff"/>
  </g>
  <g id="axes_1">
   <g id="patch_2">
    <path d="M 82.44 356.9256 
L 593.568 356.9256 
L 593.568 48.1248 
L 82.44 48.1248 
z
" style="fill: #ffffff"/>
   </g>
   <g id="matplotlib.axis_1">
    <g id="xtick_1">
     <g id="line2d_1">
      <defs>
       <path id="mb03762678e" d="M 0 0 
L 0 3.5 
" style="stroke: #000000; stroke-width: 0.8"/>
      </defs>
      <g>
       <use xlink:href="#mb03762678e" x="152.139273" y="202.5252" style="stroke: #000000; stroke-width: 0.8"/>
      </g>
     </g>
     <g id="text_1">
      <!-- −4 -->
      <g transform="translate(144.768179 217.123638)scale(0.1 -0.1)">
       <defs>
        <path id="DejaVuSans-2212" d="M 678 2272 
L 4684 2272 
L 4684 1741 
L 678 1741 
L 678 2272 
z
" transform="scale(0.015625)"/>
        <path id="DejaVuSans-34" d="M 2419 4116 
L 825 1625 
L 2419 1625 
L 2419 4116 
z
M 2253 4666 
L 3047 4666 
L 3047 1625 
L 3713 1625 
L 3713 1100 
L 3047 1100 
L 3047 0 
L 2419 0 
L 2419 1100 
L 313 1100 
L 313 1709 
L 2253 4666 
z
" transform="scale(0.015625)"/>
       </defs>
       <use xlink:href="#DejaVuSans-2212"/>
       <use xlink:href="#DejaVuSans-34" x="83.789062"/>
      </g>
     </g>
    </g>
    <g id="xtick_2">
     <g id="line2d_2">
      <g>
       <use xlink:href="#mb03762678e" x="245.071636" y="202.5252" style="stroke: #000000; stroke-width: 0.8"/>
      </g>
     </g>
     <g id="text_2">
      <!-- −2 -->
      <g transform="translate(237.700543 217.123638)scale(0.1 -0.1)">
       <defs>
        <path id="DejaVuSans-32" d="M 1228 531 
L 3431 531 
L 3431 0 
L 469 0 
L 469 531 
Q 828 903 1448 1529 
Q 2069 2156 2228 2338 
Q 2531 2678 2651 2914 
Q 2772 3150 2772 3378 
Q 2772 3750 2511 3984 
Q 2250 4219 1831 4219 
Q 1534 4219 1204 4116 
Q 875 4013 500 3803 
L 500 4441 
Q 881 4594 1212 4672 
Q 1544 4750 1819 4750 
Q 2544 4750 2975 4387 
Q 3406 4025 3406 3419 
Q 3406 3131 3298 2873 
Q 3191 2616 2906 2266 
Q 2828 2175 2409 1742 
Q 1991 1309 1228 531 
z
" transform="scale(0.015625)"/>
       </defs>
       <use xlink:href="#DejaVuSans-2212"/>
       <use xlink:href="#DejaVuSans-32" x="83.789062"/>
      </g>
     </g>
    </g>
    <g id="xtick_3">
     <g id="line2d_3">
      <g>
       <use xlink:href="#mb03762678e" x="338.004" y="202.5252" style="stroke: #000000; stroke-width: 0.8"/>
      </g>
     </g>
     <g id="text_3">
      <!-- 0 -->
      <g transform="translate(334.82275 217.123638)scale(0.1 -0.1)">
       <defs>
        <path id="DejaVuSans-30" d="M 2034 4250 
Q 1547 4250 1301 3770 
Q 1056 3291 1056 2328 
Q 1056 1369 1301 889 
Q 1547 409 2034 409 
Q 2525 409 2770 889 
Q 3016 1369 3016 2328 
Q 3016 3291 2770 3770 
Q 2525 4250 2034 4250 
z
M 2034 4750 
Q 2819 4750 3233 4129 
Q 3647 3509 3647 2328 
Q 3647 1150 3233 529 
Q 2819 -91 2034 -91 
Q 1250 -91 836 529 
Q 422 1150 422 2328 
Q 422 3509 836 4129 
Q 1250 4750 2034 4750 
z
" transform="scale(0.015625)"/>
       </defs>
       <use xlink:href="#DejaVuSans-30"/>
      </g>
     </g>
    </g>
    <g id="xtick_4">
     <g id="line2d_4">
      <g>
       <use xlink:href="#mb03762678e" x="430.936364" y="202.5252" style="stroke: #000000; stroke-width: 0.8"/>
      </g>
     </g>
     <g id="text_4">
      <!-- 2 -->
      <g transform="translate(427.755114 217.123638)scale(0.1 -0.1)">
       <use xlink:href="#DejaVuSans-32"/>
      </g>
     </g>
    </g>
    <g id="xtick_5">
     <g id="line2d_5">
      <g>
       <use xlink:href="#mb03762678e" x="523.868727" y="202.5252" style="stroke: #000000; stroke-width: 0.8"/>
      </g>
     </g>
     <g id="text_5">
      <!-- 4 -->
      <g transform="translate(520.687477 217.123638)scale(0.1 -0.1)">
       <use xlink:href="#DejaVuSans-34"/>
      </g>
     </g>
    </g>
   </g>
   <g id="matplotlib.axis_2">
    <g id="ytick_1">
     <g id="line2d_6">
      <defs>
       <path id="mcb6751447b" d="M 0 0 
L -3.5 0 
" style="stroke: #000000; stroke-width: 0.8"/>
      </defs>
      <g>
       <use xlink:href="#mcb6751447b" x="338.004" y="314.8164" style="stroke: #000000; stroke-width: 0.8"/>
      </g>
     </g>
     <g id="text_6">
      <!-- −0.04 -->
      <g transform="translate(300.358688 318.615619)scale(0.1 -0.1)">
       <defs>
        <path id="DejaVuSans-2e" d="M 684 794 
L 1344 794 
L 1344 0 
L 684 0 
L 684 794 
z
" transform="scale(0.015625)"/>
       </defs>
       <use xlink:href="#DejaVuSans-2212"/>
       <use xlink:href="#DejaVuSans-30" x="83.789062"/>
       <use xlink:href="#DejaVuSans-2e" x="147.412109"/>
       <use xlink:href="#DejaVuSans-30" x="179.199219"/>
       <use xlink:href="#DejaVuSans-34" x="242.822266"/>
      </g>
     </g>
    </g>
    <g id="ytick_2">
     <g id="line2d_7">
      <g>
       <use xlink:href="#mcb6751447b" x="338.004" y="258.6708" style="stroke: #000000; stroke-width: 0.8"/>
      </g>
     </g>
     <g id="text_7">
      <!-- −0.02 -->
      <g transform="translate(300.358688 262.470019)scale(0.1 -0.1)">
       <use xlink:href="#DejaVuSans-2212"/>
       <use xlink:href="#DejaVuSans-30" x="83.789062"/>
       <use xlink:href="#DejaVuSans-2e" x="147.412109"/>
       <use xlink:href="#DejaVuSans-30" x="179.199219"/>
       <use xlink:href="#DejaVuSans-32" x="242.822266"/>
      </g>
     </g>
    </g>
    <g id="ytick_3">
     <g id="line2d_8">
      <g>
       <use xlink:href="#mcb6751447b" x="338.004" y="202.5252" style="stroke: #000000; stroke-width: 0.8"/>
      </g>
     </g>
     <g id="text_8">
      <!-- 0.00 -->
      <g transform="translate(308.738375 206.324419)scale(0.1 -0.1)">
       <use xlink:href="#DejaVuSans-30"/>
       <use xlink:href="#DejaVuSans-2e" x="63.623047"/>
       <use xlink:href="#DejaVuSans-30" x="95.410156"/>
       <use xlink:href="#DejaVuSans-30" x="159.033203"/>
      </g>
     </g>
    </g>
    <g id="ytick_4">
     <g id="line2d_9">
      <g>
       <use xlink:href="#mcb6751447b" x="338.004" y="146.3796" style="stroke: #000000; stroke-width: 0.8"/>
      </g>
     </g>
     <g id="text_9">
      <!-- 0.02 -->
      <g transform="translate(308.738375 150.178819)scale(0.1 -0.1)">
       <use xlink:href="#DejaVuSans-30"/>
       <use xlink:href="#DejaVuSans-2e" x="63.623047"/>
       <use xlink:href="#DejaVuSans-30" x="95.410156"/>
       <use xlink:href="#DejaVuSans-32" x="159.033203"/>
      </g>
     </g>
    </g>
    <g id="ytick_5">
     <g id="line2d_10">
      <g>
       <use xlink:href="#mcb6751447b" x="338.004" y="90.234" style="stroke: #000000; stroke-width: 0.8"/>
      </g>
     </g>
     <g id="text_10">
      <!-- 0.04 -->
      <g transform="translate(308.738375 94.033219)scale(0.1 -0.1)">
       <use xlink:href="#DejaVuSans-30"/>
       <use xlink:href="#DejaVuSans-2e" x="63.623047"/>
       <use xlink:href="#DejaVuSans-30" x="95.410156"/>
       <use xlink:href="#DejaVuSans-34" x="159.033203"/>
      </g>
     </g>
    </g>
   </g>
   <g id="line2d_11">
    <path d="M 105.673091 202.5252 
L 110.319709 202.5252 
L 114.966327 202.5252 
L 119.612945 202.5252 
L 124.259564 202.5252 
L 128.906182 202.5252 
L 133.5528 202.5252 
L 138.199418 202.5252 
L 142.846036 202.5252 
L 147.492655 202.5252 
L 152.139273 202.5252 
L 156.785891 202.5252 
L 161.432509 202.5252 
L 166.079127 202.5252 
L 170.725745 202.5252 
L 175.372364 202.5252 
L 180.018982 202.5252 
L 184.6656 202.5252 
L 189.312218 202.5252 
L 193.958836 202.5252 
L 198.605455 202.5252 
L 203.252073 202.5252 
L 207.898691 202.5252 
L 212.545309 202.5252 
L 217.191927 202.5252 
L 221.838545 202.5252 
L 226.485164 202.5252 
L 231.131782 202.5252 
L 235.7784 202.5252 
L 240.425018 202.5252 
L 245.071636 202.5252 
L 249.718255 202.5252 
L 254.364873 202.5252 
L 259.011491 202.5252 
L 263.658109 202.5252 
L 268.304727 202.5252 
L 272.951345 202.5252 
L 277.597964 202.5252 
L 282.244582 202.5252 
L 286.8912 202.5252 
L 291.537818 202.5252 
L 296.184436 202.5252 
L 300.831055 202.5252 
L 305.477673 202.5252 
L 310.124291 202.5252 
L 314.770909 202.5252 
L 319.417527 202.5252 
L 324.064145 202.5252 
L 328.710764 202.5252 
L 333.357382 202.5252 
L 338.004 202.5252 
L 342.650618 202.5252 
L 347.297236 202.5252 
L 351.943855 202.5252 
L 356.590473 202.5252 
L 361.237091 202.5252 
L 365.883709 202.5252 
L 370.530327 202.5252 
L 375.176945 202.5252 
L 379.823564 202.5252 
L 384.470182 202.5252 
L 389.1168 202.5252 
L 393.763418 202.5252 
L 398.410036 202.5252 
L 403.056655 202.5252 
L 407.703273 202.5252 
L 412.349891 202.5252 
L 416.996509 202.5252 
L 421.643127 202.5252 
L 426.289745 202.5252 
L 430.936364 202.5252 
L 435.582982 202.5252 
L 440.2296 202.5252 
L 444.876218 202.5252 
L 449.522836 202.5252 
L 454.169455 202.5252 
L 458.816073 202.5252 
L 463.462691 202.5252 
L 468.109309 202.5252 
L 472.755927 202.5252 
L 477.402545 202.5252 
L 482.049164 202.5252 
L 486.695782 202.5252 
L 491.3424 202.5252 
L 495.989018 202.5252 
L 500.635636 202.5252 
L 505.282255 202.5252 
L 509.928873 202.5252 
L 514.575491 202.5252 
L 519.222109 202.5252 
L 523.868727 202.5252 
L 528.515345 202.5252 
L 533.161964 202.5252 
L 537.808582 202.5252 
L 542.4552 202.5252 
L 547.101818 202.5252 
L 551.748436 202.5252 
L 556.395055 202.5252 
L 561.041673 202.5252 
L 565.688291 202.5252 
L 570.334909 202.5252 
" clip-path="url(#p50ec3dc18b)" style="fill: none; stroke: #000000; stroke-width: 1.5; stroke-linecap: square"/>
   </g>
   <g id="line2d_12">
    <path d="M 105.673091 202.5252 
L 110.319709 202.5252 
L 114.966327 202.5252 
L 119.612945 202.5252 
L 124.259564 202.5252 
L 128.906182 202.5252 
L 133.5528 202.5252 
L 138.199418 202.5252 
L 142.846036 202.5252 
L 147.492655 202.5252 
L 152.139273 202.5252 
L 156.785891 202.5252 
L 161.432509 202.5252 
L 166.079127 202.5252 
L 170.725745 202.5252 
L 175.372364 202.5252 
L 180.018982 202.5252 
L 184.6656 202.5252 
L 189.312218 202.5252 
L 193.958836 202.5252 
L 198.605455 202.5252 
L 203.252073 202.5252 
L 207.898691 202.5252 
L 212.545309 202.5252 
L 217.191927 202.5252 
L 221.838545 202.5252 
L 226.485164 202.5252 
L 231.131782 202.5252 
L 235.7784 202.5252 
L 240.425018 202.5252 
L 245.071636 202.5252 
L 249.718255 202.5252 
L 254.364873 202.5252 
L 259.011491 202.5252 
L 263.658109 202.5252 
L 268.304727 202.5252 
L 272.951345 202.5252 
L 277.597964 202.5252 
L 282.244582 202.5252 
L 286.8912 202.5252 
L 291.537818 202.5252 
L 296.184436 202.5252 
L 300.831055 202.5252 
L 305.477673 202.5252 
L 310.124291 202.5252 
L 314.770909 202.5252 
L 319.417527 202.5252 
L 324.064145 202.5252 
L 328.710764 202.5252 
L 333.357382 202.5252 
L 338.004 202.5252 
L 342.650618 202.5252 
L 347.297236 202.5252 
L 351.943855 202.5252 
L 356.590473 202.5252 
L 361.237091 202.5252 
L 365.883709 202.5252 
L 370.530327 202.5252 
L 375.176945 202.5252 
L 379.823564 202.5252 
L 384.470182 202.5252 
L 389.1168 202.5252 
L 393.763418 202.5252 
L 398.410036 202.5252 
L 403.056655 202.5252 
L 407.703273 202.5252 
L 412.349891 202.5252 
L 416.996509 202.5252 
L 421.643127 202.5252 
L 426.289745 202.5252 
L 430.936364 202.5252 
L 435.582982 202.5252 
L 440.2296 202.5252 
L 444.876218 202.5252 
L 449.522836 202.5252 
L 454.169455 202.5252 
L 458.816073 202.5252 
L 463.462691 202.5252 
L 468.109309 202.5252 
L 472.755927 202.5252 
L 477.402545 202.5252 
L 482.049164 202.5252 
L 486.695782 202.5252 
L 491.3424 202.5252 
L 495.989018 202.5252 
L 500.635636 202.5252 
L 505.282255 202.5252 
L 509.928873 202.5252 
L 514.575491 202.5252 
L 519.222109 202.5252 
L 523.868727 202.5252 
L 528.515345 202.5252 
L 533.161964 202.5252 
L 537.808582 202.5252 
L 542.4552 202.5252 
L 547.101818 202.5252 
L 551.748436 202.5252 
L 556.395055 202.5252 
L 561.041673 202.5252 
L 565.688291 202.5252 
L 570.334909 202.5252 
" clip-path="url(#p50ec3dc18b)" style="fill: none; stroke: #008000; stroke-width: 1.5; stroke-linecap: square"/>
   </g>
   <g id="line2d_13">
    <defs>
     <path id="m1b2be3eb33" d="M 0 3 
C 0.795609 3 1.55874 2.683901 2.12132 2.12132 
C 2.683901 1.55874 3 0.795609 3 0 
C 3 -0.795609 2.683901 -1.55874 2.12132 -2.12132 
C 1.55874 -2.683901 0.795609 -3 0 -3 
C -0.795609 -3 -1.55874 -2.683901 -2.12132 -2.12132 
C -2.683901 -1.55874 -3 -0.795609 -3 0 
C -3 0.795609 -2.683901 1.55874 -2.12132 2.12132 
C -1.55874 2.683901 -0.795609 3 0 3 
z
" style="stroke: #ff0000"/>
    </defs>
    <g clip-path="url(#p50ec3dc18b)">
     <use xlink:href="#m1b2be3eb33" x="152.139273" y="202.5252" style="fill: #ff0000; stroke: #ff0000"/>
     <use xlink:href="#m1b2be3eb33" x="198.605455" y="202.5252" style="fill: #ff0000; stroke: #ff0000"/>
     <use xlink:href="#m1b2be3eb33" x="245.071636" y="202.5252" style="fill: #ff0000; stroke: #ff0000"/>
     <use xlink:href="#m1b2be3eb33" x="291.537818" y="202.5252" style="fill: #ff0000; stroke: #ff0000"/>
     <use xlink:href="#m1b2be3eb33" x="338.004" y="202.5252" style="fill: #ff0000; stroke: #ff0000"/>
     <use xlink:href="#m1b2be3eb33" x="384.470182" y="202.5252" style="fill: #ff0000; stroke: #ff0000"/>
     <use xlink:href="#m1b2be3eb33" x="430.936364" y="202.5252" style="fill: #ff0000; stroke: #ff0000"/>
     <use xlink:href="#m1b2be3eb33" x="477.402545" y="202.5252" style="fill: #ff0000; stroke: #ff0000"/>
     <use xlink:href="#m1b2be3eb33" x="523.868727" y="202.5252" style="fill: #ff0000; stroke: #ff0000"/>
     <use xlink:href="#m1b2be3eb33" x="570.334909" y="202.5252" style="fill: #ff0000; stroke: #ff0000"/>
    </g>
   </g>
   <g id="line2d_14">
    <defs>
     <path id="m619ff80e92" d="M 0 3 
C 0.795609 3 1.55874 2.683901 2.12132 2.12132 
C 2.683901 1.55874 3 0.795609 3 0 
C 3 -0.795609 2.683901 -1.55874 2.12132 -2.12132 
C 1.55874 -2.683901 0.795609 -3 0 -3 
C -0.795609 -3 -1.55874 -2.683901 -2.12132 -2.12132 
C -2.683901 -1.55874 -3 -0.795609 -3 0 
C -3 0.795609 -2.683901 1.55874 -2.12132 2.12132 
C -1.55874 2.683901 -0.795609 3 0 3 
z
" style="stroke: #bf00bf"/>
    </defs>
    <g clip-path="url(#p50ec3dc18b)">
     <use xlink:href="#m619ff80e92" x="105.673091" y="202.5252" style="fill: #bf00bf; stroke: #bf00bf"/>
    </g>
   </g>
   <g id="patch_3">
    <path d="M 338.004 356.9256 
L 338.004 48.1248 
" style="fill: none; stroke: #000000; stroke-width: 0.8; stroke-linejoin: miter; stroke-linecap: square"/>
   </g>
   <g id="patch_4">
    <path d="M 593.568 356.9256 
L 593.568 48.1248 
" style="fill: none"/>
   </g>
   <g id="patch_5">
    <path d="M 82.44 202.5252 
L 593.568 202.5252 
" style="fill: none; stroke: #000000; stroke-width: 0.8; stroke-linejoin: miter; stroke-linecap: square"/>
   </g>
   <g id="patch_6">
    <path d="M 82.44 48.1248 
L 593.568 48.1248 
" style="fill: none"/>
   </g>
   <g id="legend_1">
    <g id="patch_7">
     <path d="M 493.472687 114.8373 
L 586.568 114.8373 
Q 588.568 114.8373 588.568 112.8373 
L 588.568 55.1248 
Q 588.568 53.1248 586.568 53.1248 
L 493.472687 53.1248 
Q 491.472687 53.1248 491.472687 55.1248 
L 491.472687 112.8373 
Q 491.472687 114.8373 493.472687 114.8373 
z
" style="fill: #ffffff; opacity: 0.8; stroke: #cccccc; stroke-linejoin: miter"/>
    </g>
    <g id="line2d_15">
     <path d="M 495.472687 61.223237 
L 505.472687 61.223237 
L 515.472687 61.223237 
" style="fill: none; stroke: #000000; stroke-width: 1.5; stroke-linecap: square"/>
    </g>
    <g id="text_11">
     <!-- solution -->
     <g transform="translate(523.472687 64.723237)scale(0.1 -0.1)">
      <defs>
       <path id="DejaVuSans-73" d="M 2834 3397 
L 2834 2853 
Q 2591 2978 2328 3040 
Q 2066 3103 1784 3103 
Q 1356 3103 1142 2972 
Q 928 2841 928 2578 
Q 928 2378 1081 2264 
Q 1234 2150 1697 2047 
L 1894 2003 
Q 2506 1872 2764 1633 
Q 3022 1394 3022 966 
Q 3022 478 2636 193 
Q 2250 -91 1575 -91 
Q 1294 -91 989 -36 
Q 684 19 347 128 
L 347 722 
Q 666 556 975 473 
Q 1284 391 1588 391 
Q 1994 391 2212 530 
Q 2431 669 2431 922 
Q 2431 1156 2273 1281 
Q 2116 1406 1581 1522 
L 1381 1569 
Q 847 1681 609 1914 
Q 372 2147 372 2553 
Q 372 3047 722 3315 
Q 1072 3584 1716 3584 
Q 2034 3584 2315 3537 
Q 2597 3491 2834 3397 
z
" transform="scale(0.015625)"/>
       <path id="DejaVuSans-6f" d="M 1959 3097 
Q 1497 3097 1228 2736 
Q 959 2375 959 1747 
Q 959 1119 1226 758 
Q 1494 397 1959 397 
Q 2419 397 2687 759 
Q 2956 1122 2956 1747 
Q 2956 2369 2687 2733 
Q 2419 3097 1959 3097 
z
M 1959 3584 
Q 2709 3584 3137 3096 
Q 3566 2609 3566 1747 
Q 3566 888 3137 398 
Q 2709 -91 1959 -91 
Q 1206 -91 779 398 
Q 353 888 353 1747 
Q 353 2609 779 3096 
Q 1206 3584 1959 3584 
z
" transform="scale(0.015625)"/>
       <path id="DejaVuSans-6c" d="M 603 4863 
L 1178 4863 
L 1178 0 
L 603 0 
L 603 4863 
z
" transform="scale(0.015625)"/>
       <path id="DejaVuSans-75" d="M 544 1381 
L 544 3500 
L 1119 3500 
L 1119 1403 
Q 1119 906 1312 657 
Q 1506 409 1894 409 
Q 2359 409 2629 706 
Q 2900 1003 2900 1516 
L 2900 3500 
L 3475 3500 
L 3475 0 
L 2900 0 
L 2900 538 
Q 2691 219 2414 64 
Q 2138 -91 1772 -91 
Q 1169 -91 856 284 
Q 544 659 544 1381 
z
M 1991 3584 
L 1991 3584 
z
" transform="scale(0.015625)"/>
       <path id="DejaVuSans-74" d="M 1172 4494 
L 1172 3500 
L 2356 3500 
L 2356 3053 
L 1172 3053 
L 1172 1153 
Q 1172 725 1289 603 
Q 1406 481 1766 481 
L 2356 481 
L 2356 0 
L 1766 0 
Q 1100 0 847 248 
Q 594 497 594 1153 
L 594 3053 
L 172 3053 
L 172 3500 
L 594 3500 
L 594 4494 
L 1172 4494 
z
" transform="scale(0.015625)"/>
       <path id="DejaVuSans-69" d="M 603 3500 
L 1178 3500 
L 1178 0 
L 603 0 
L 603 3500 
z
M 603 4863 
L 1178 4863 
L 1178 4134 
L 603 4134 
L 603 4863 
z
" transform="scale(0.015625)"/>
       <path id="DejaVuSans-6e" d="M 3513 2113 
L 3513 0 
L 2938 0 
L 2938 2094 
Q 2938 2591 2744 2837 
Q 2550 3084 2163 3084 
Q 1697 3084 1428 2787 
Q 1159 2491 1159 1978 
L 1159 0 
L 581 0 
L 581 3500 
L 1159 3500 
L 1159 2956 
Q 1366 3272 1645 3428 
Q 1925 3584 2291 3584 
Q 2894 3584 3203 3211 
Q 3513 2838 3513 2113 
z
" transform="scale(0.015625)"/>
      </defs>
      <use xlink:href="#DejaVuSans-73"/>
      <use xlink:href="#DejaVuSans-6f" x="52.099609"/>
      <use xlink:href="#DejaVuSans-6c" x="113.28125"/>
      <use xlink:href="#DejaVuSans-75" x="141.064453"/>
      <use xlink:href="#DejaVuSans-74" x="204.443359"/>
      <use xlink:href="#DejaVuSans-69" x="243.652344"/>
      <use xlink:href="#DejaVuSans-6f" x="271.435547"/>
      <use xlink:href="#DejaVuSans-6e" x="332.617188"/>
     </g>
    </g>
    <g id="line2d_16">
     <path d="M 495.472687 75.901363 
L 505.472687 75.901363 
L 515.472687 75.901363 
" style="fill: none; stroke: #008000; stroke-width: 1.5; stroke-linecap: square"/>
    </g>
    <g id="text_12">
     <!-- interpolated -->
     <g transform="translate(523.472687 79.401363)scale(0.1 -0.1)">
      <defs>
       <path id="DejaVuSans-65" d="M 3597 1894 
L 3597 1613 
L 953 1613 
Q 991 1019 1311 708 
Q 1631 397 2203 397 
Q 2534 397 2845 478 
Q 3156 559 3463 722 
L 3463 178 
Q 3153 47 2828 -22 
Q 2503 -91 2169 -91 
Q 1331 -91 842 396 
Q 353 884 353 1716 
Q 353 2575 817 3079 
Q 1281 3584 2069 3584 
Q 2775 3584 3186 3129 
Q 3597 2675 3597 1894 
z
M 3022 2063 
Q 3016 2534 2758 2815 
Q 2500 3097 2075 3097 
Q 1594 3097 1305 2825 
Q 1016 2553 972 2059 
L 3022 2063 
z
" transform="scale(0.015625)"/>
       <path id="DejaVuSans-72" d="M 2631 2963 
Q 2534 3019 2420 3045 
Q 2306 3072 2169 3072 
Q 1681 3072 1420 2755 
Q 1159 2438 1159 1844 
L 1159 0 
L 581 0 
L 581 3500 
L 1159 3500 
L 1159 2956 
Q 1341 3275 1631 3429 
Q 1922 3584 2338 3584 
Q 2397 3584 2469 3576 
Q 2541 3569 2628 3553 
L 2631 2963 
z
" transform="scale(0.015625)"/>
       <path id="DejaVuSans-70" d="M 1159 525 
L 1159 -1331 
L 581 -1331 
L 581 3500 
L 1159 3500 
L 1159 2969 
Q 1341 3281 1617 3432 
Q 1894 3584 2278 3584 
Q 2916 3584 3314 3078 
Q 3713 2572 3713 1747 
Q 3713 922 3314 415 
Q 2916 -91 2278 -91 
Q 1894 -91 1617 61 
Q 1341 213 1159 525 
z
M 3116 1747 
Q 3116 2381 2855 2742 
Q 2594 3103 2138 3103 
Q 1681 3103 1420 2742 
Q 1159 2381 1159 1747 
Q 1159 1113 1420 752 
Q 1681 391 2138 391 
Q 2594 391 2855 752 
Q 3116 1113 3116 1747 
z
" transform="scale(0.015625)"/>
       <path id="DejaVuSans-61" d="M 2194 1759 
Q 1497 1759 1228 1600 
Q 959 1441 959 1056 
Q 959 750 1161 570 
Q 1363 391 1709 391 
Q 2188 391 2477 730 
Q 2766 1069 2766 1631 
L 2766 1759 
L 2194 1759 
z
M 3341 1997 
L 3341 0 
L 2766 0 
L 2766 531 
Q 2569 213 2275 61 
Q 1981 -91 1556 -91 
Q 1019 -91 701 211 
Q 384 513 384 1019 
Q 384 1609 779 1909 
Q 1175 2209 1959 2209 
L 2766 2209 
L 2766 2266 
Q 2766 2663 2505 2880 
Q 2244 3097 1772 3097 
Q 1472 3097 1187 3025 
Q 903 2953 641 2809 
L 641 3341 
Q 956 3463 1253 3523 
Q 1550 3584 1831 3584 
Q 2591 3584 2966 3190 
Q 3341 2797 3341 1997 
z
" transform="scale(0.015625)"/>
       <path id="DejaVuSans-64" d="M 2906 2969 
L 2906 4863 
L 3481 4863 
L 3481 0 
L 2906 0 
L 2906 525 
Q 2725 213 2448 61 
Q 2172 -91 1784 -91 
Q 1150 -91 751 415 
Q 353 922 353 1747 
Q 353 2572 751 3078 
Q 1150 3584 1784 3584 
Q 2172 3584 2448 3432 
Q 2725 3281 2906 2969 
z
M 947 1747 
Q 947 1113 1208 752 
Q 1469 391 1925 391 
Q 2381 391 2643 752 
Q 2906 1113 2906 1747 
Q 2906 2381 2643 2742 
Q 2381 3103 1925 3103 
Q 1469 3103 1208 2742 
Q 947 2381 947 1747 
z
" transform="scale(0.015625)"/>
      </defs>
      <use xlink:href="#DejaVuSans-69"/>
      <use xlink:href="#DejaVuSans-6e" x="27.783203"/>
      <use xlink:href="#DejaVuSans-74" x="91.162109"/>
      <use xlink:href="#DejaVuSans-65" x="130.371094"/>
      <use xlink:href="#DejaVuSans-72" x="191.894531"/>
      <use xlink:href="#DejaVuSans-70" x="233.007812"/>
      <use xlink:href="#DejaVuSans-6f" x="296.484375"/>
      <use xlink:href="#DejaVuSans-6c" x="357.666016"/>
      <use xlink:href="#DejaVuSans-61" x="385.449219"/>
      <use xlink:href="#DejaVuSans-74" x="446.728516"/>
      <use xlink:href="#DejaVuSans-65" x="485.9375"/>
      <use xlink:href="#DejaVuSans-64" x="547.460938"/>
     </g>
    </g>
    <g id="line2d_17">
     <g>
      <use xlink:href="#m1b2be3eb33" x="505.472687" y="90.579487" style="fill: #ff0000; stroke: #ff0000"/>
     </g>
    </g>
    <g id="text_13">
     <!-- solved -->
     <g transform="translate(523.472687 94.079487)scale(0.1 -0.1)">
      <defs>
       <path id="DejaVuSans-76" d="M 191 3500 
L 800 3500 
L 1894 563 
L 2988 3500 
L 3597 3500 
L 2284 0 
L 1503 0 
L 191 3500 
z
" transform="scale(0.015625)"/>
      </defs>
      <use xlink:href="#DejaVuSans-73"/>
      <use xlink:href="#DejaVuSans-6f" x="52.099609"/>
      <use xlink:href="#DejaVuSans-6c" x="113.28125"/>
      <use xlink:href="#DejaVuSans-76" x="141.064453"/>
      <use xlink:href="#DejaVuSans-65" x="200.244141"/>
      <use xlink:href="#DejaVuSans-64" x="261.767578"/>
     </g>
    </g>
    <g id="line2d_18">
     <g>
      <use xlink:href="#m619ff80e92" x="505.472687" y="105.257612" style="fill: #bf00bf; stroke: #bf00bf"/>
     </g>
    </g>
    <g id="text_14">
     <!-- condition -->
     <g transform="translate(523.472687 108.757612)scale(0.1 -0.1)">
      <defs>
       <path id="DejaVuSans-63" d="M 3122 3366 
L 3122 2828 
Q 2878 2963 2633 3030 
Q 2388 3097 2138 3097 
Q 1578 3097 1268 2742 
Q 959 2388 959 1747 
Q 959 1106 1268 751 
Q 1578 397 2138 397 
Q 2388 397 2633 464 
Q 2878 531 3122 666 
L 3122 134 
Q 2881 22 2623 -34 
Q 2366 -91 2075 -91 
Q 1284 -91 818 406 
Q 353 903 353 1747 
Q 353 2603 823 3093 
Q 1294 3584 2113 3584 
Q 2378 3584 2631 3529 
Q 2884 3475 3122 3366 
z
" transform="scale(0.015625)"/>
      </defs>
      <use xlink:href="#DejaVuSans-63"/>
      <use xlink:href="#DejaVuSans-6f" x="54.980469"/>
      <use xlink:href="#DejaVuSans-6e" x="116.162109"/>
      <use xlink:href="#DejaVuSans-64" x="179.541016"/>
      <use xlink:href="#DejaVuSans-69" x="243.017578"/>
      <use xlink:href="#DejaVuSans-74" x="270.800781"/>
      <use xlink:href="#DejaVuSans-69" x="310.009766"/>
      <use xlink:href="#DejaVuSans-6f" x="337.792969"/>
      <use xlink:href="#DejaVuSans-6e" x="398.974609"/>
     </g>
    </g>
   </g>
  </g>
 </g>
 <defs>
  <clipPath id="p50ec3dc18b">
   <rect x="82.44" y="48.1248" width="511.128" height="308.8008"/>
  </clipPath>
 </defs>
</svg>
